<svg 
 xmlns="http://www.w3.org/2000/svg"
 xmlns:xlink="http://www.w3.org/1999/xlink"
 width="71px" height="25px">
<path fill-rule="evenodd"  fill="rgb(17, 17, 17)"
 d="M44.257,8.775 C44.257,9.013 44.162,9.436 43.514,9.436 L42.625,9.436 L42.625,9.342 C42.857,9.342 42.876,9.322 42.876,9.092 L42.876,7.447 C42.876,7.213 42.857,7.201 42.625,7.201 L42.625,7.106 L43.376,7.106 C43.634,7.106 43.807,7.128 43.955,7.239 C44.071,7.326 44.146,7.462 44.146,7.629 C44.146,7.759 44.106,7.897 44.002,8.005 C43.914,8.098 43.788,8.162 43.603,8.197 L43.603,8.201 C43.911,8.210 44.257,8.381 44.257,8.775 ZM43.908,7.658 C43.908,7.544 43.876,7.431 43.798,7.349 C43.725,7.276 43.606,7.225 43.420,7.225 L43.197,7.225 C43.115,7.225 43.106,7.251 43.106,7.330 L43.106,8.151 L43.342,8.151 C43.782,8.151 43.908,7.901 43.908,7.658 ZM43.408,8.273 L43.106,8.273 L43.106,9.154 C43.106,9.290 43.128,9.312 43.222,9.312 L43.502,9.312 C43.798,9.312 44.014,9.186 44.014,8.770 C44.014,8.581 43.923,8.273 43.408,8.273 ZM36.085,24.240 C36.085,16.412 36.085,8.583 36.085,0.756 C41.438,0.845 44.504,2.393 44.634,4.041 L41.676,4.041 C41.262,2.681 38.279,2.155 37.435,2.098 C37.435,9.048 37.416,15.975 37.376,22.925 C42.497,22.835 59.453,21.930 59.406,15.857 C59.402,15.128 59.153,14.477 58.711,13.896 L42.580,13.896 L42.580,12.542 L67.393,12.542 L67.689,12.702 C76.898,17.620 62.551,23.975 36.085,24.240 ZM66.696,8.381 L66.426,8.381 L66.426,9.098 C66.426,9.325 66.442,9.342 66.722,9.342 L66.722,9.436 L65.945,9.436 L65.945,9.342 C66.178,9.342 66.197,9.322 66.197,9.098 L66.197,7.444 C66.197,7.213 66.178,7.201 65.945,7.201 L65.945,7.106 L66.725,7.106 C67.074,7.106 67.253,7.158 67.379,7.260 C67.505,7.368 67.583,7.526 67.583,7.731 C67.583,7.936 67.518,8.098 67.382,8.208 C67.244,8.318 67.055,8.381 66.696,8.381 ZM66.687,7.225 L66.505,7.225 C66.436,7.225 66.426,7.253 66.426,7.415 L66.426,8.261 L66.696,8.261 C67.030,8.261 67.341,8.176 67.341,7.727 C67.341,7.239 66.914,7.225 66.687,7.225 ZM65.508,7.444 L65.508,8.681 C65.508,8.965 65.442,9.167 65.307,9.299 C65.181,9.422 65.008,9.483 64.778,9.483 C64.046,9.483 64.011,8.975 64.011,8.643 L64.011,7.444 C64.011,7.213 63.995,7.201 63.782,7.201 L63.782,7.106 L64.480,7.106 L64.480,7.201 C64.260,7.201 64.244,7.210 64.244,7.444 L64.244,8.632 C64.244,8.987 64.326,9.342 64.816,9.342 C65.351,9.342 65.373,8.889 65.373,8.641 L65.373,7.444 C65.373,7.213 65.354,7.201 65.143,7.201 L65.143,7.106 L65.728,7.106 L65.728,7.201 C65.524,7.201 65.508,7.213 65.508,7.444 ZM62.549,9.483 C61.926,9.483 61.577,9.075 61.577,8.267 C61.577,7.408 61.986,7.058 62.549,7.058 C63.257,7.058 63.521,7.595 63.521,8.267 C63.521,9.094 63.143,9.483 62.549,9.483 ZM63.272,8.267 C63.272,7.839 63.191,7.573 63.058,7.405 C62.926,7.248 62.744,7.175 62.546,7.175 C62.278,7.175 62.124,7.298 62.033,7.405 C61.901,7.573 61.819,7.839 61.819,8.267 C61.819,8.633 61.892,8.934 62.033,9.129 C62.150,9.272 62.345,9.362 62.546,9.362 C62.747,9.362 62.936,9.272 63.058,9.129 C63.200,8.934 63.272,8.633 63.272,8.267 ZM60.392,8.349 L60.084,8.349 L60.084,9.098 C60.084,9.328 60.099,9.342 60.338,9.342 L60.338,9.436 L59.602,9.436 L59.602,9.342 C59.835,9.342 59.854,9.322 59.854,9.094 L59.854,7.444 C59.854,7.213 59.835,7.201 59.602,7.201 L59.602,7.106 L60.392,7.106 C60.672,7.106 60.841,7.140 60.996,7.253 C61.137,7.355 61.209,7.500 61.209,7.706 C61.209,8.049 60.951,8.267 60.624,8.318 L61.093,9.117 C61.216,9.315 61.260,9.342 61.414,9.342 L61.414,9.436 L61.018,9.436 L60.392,8.349 ZM60.967,7.696 C60.967,7.561 60.920,7.431 60.816,7.346 C60.725,7.270 60.593,7.225 60.382,7.225 L60.165,7.225 C60.090,7.225 60.084,7.251 60.084,7.422 L60.084,8.226 L60.320,8.226 C60.738,8.226 60.967,8.068 60.967,7.696 ZM59.194,8.798 L59.194,9.215 C59.033,9.370 58.791,9.483 58.540,9.483 C57.958,9.483 57.615,9.019 57.615,8.264 C57.615,7.650 57.873,7.058 58.608,7.058 C58.819,7.058 58.977,7.115 59.112,7.173 C59.128,7.349 59.153,7.500 59.181,7.671 L59.071,7.693 C59.011,7.359 58.964,7.175 58.584,7.175 C58.121,7.175 57.857,7.611 57.857,8.245 C57.857,8.965 58.150,9.357 58.558,9.357 C58.775,9.357 58.914,9.250 58.980,9.196 L58.980,8.814 C58.980,8.652 58.961,8.637 58.719,8.637 L58.719,8.542 L59.401,8.542 L59.401,8.637 C59.206,8.637 59.194,8.650 59.194,8.798 ZM55.335,9.436 L54.574,9.436 L54.574,9.342 C54.807,9.342 54.826,9.322 54.826,9.098 L54.826,7.444 C54.826,7.213 54.807,7.201 54.574,7.201 L54.574,7.106 L55.404,7.106 C55.750,7.106 55.973,7.175 56.156,7.368 C56.360,7.585 56.442,7.892 56.442,8.245 C56.442,9.041 56.074,9.436 55.335,9.436 ZM55.989,7.469 C55.848,7.285 55.646,7.223 55.392,7.223 L55.156,7.223 C55.071,7.223 55.055,7.245 55.055,7.352 L55.055,9.149 C55.055,9.294 55.071,9.315 55.165,9.315 L55.323,9.315 C55.835,9.315 56.200,9.031 56.200,8.283 C56.200,7.927 56.143,7.671 55.989,7.469 ZM53.429,8.349 L53.121,8.349 L53.121,9.098 C53.121,9.328 53.137,9.342 53.376,9.342 L53.376,9.436 L52.640,9.436 L52.640,9.342 C52.873,9.342 52.892,9.322 52.892,9.094 L52.892,7.444 C52.892,7.213 52.873,7.201 52.640,7.201 L52.640,7.106 L53.429,7.106 C53.709,7.106 53.879,7.140 54.033,7.253 C54.175,7.355 54.247,7.500 54.247,7.706 C54.247,8.049 53.989,8.267 53.662,8.318 L54.131,9.117 C54.253,9.315 54.297,9.342 54.452,9.342 L54.452,9.436 L54.055,9.436 L53.429,8.349 ZM54.005,7.696 C54.005,7.561 53.958,7.431 53.854,7.346 C53.763,7.270 53.631,7.225 53.420,7.225 L53.203,7.225 C53.128,7.225 53.121,7.251 53.121,7.422 L53.121,8.226 L53.357,8.226 C53.776,8.226 54.005,8.068 54.005,7.696 ZM51.876,9.342 C52.008,9.342 52.052,9.322 52.052,9.259 C52.052,9.227 52.043,9.183 52.024,9.129 L51.873,8.684 L51.043,8.684 L50.923,9.104 C50.904,9.174 50.892,9.221 50.892,9.255 C50.892,9.325 50.939,9.342 51.065,9.342 L51.065,9.436 L50.555,9.436 L50.555,9.342 C50.678,9.342 50.713,9.312 50.760,9.165 L51.417,7.058 L51.530,7.058 L52.260,9.120 C52.323,9.309 52.360,9.342 52.477,9.342 L52.477,9.436 L51.876,9.436 L51.876,9.342 ZM51.439,7.422 L51.430,7.422 L51.083,8.561 L51.832,8.561 L51.439,7.422 ZM49.656,9.350 C49.992,9.350 50.168,9.089 50.253,8.820 L50.370,8.852 C50.216,9.322 49.920,9.483 49.628,9.483 C49.200,9.483 48.719,9.224 48.719,8.245 C48.719,7.541 49.030,7.058 49.684,7.058 C49.870,7.058 49.992,7.084 50.213,7.165 C50.231,7.343 50.260,7.526 50.291,7.680 L50.178,7.706 C50.106,7.339 50.074,7.175 49.687,7.175 C49.178,7.175 48.961,7.639 48.961,8.239 C48.961,9.151 49.395,9.350 49.656,9.350 ZM47.448,9.483 C46.826,9.483 46.477,9.075 46.477,8.267 C46.477,7.408 46.885,7.058 47.448,7.058 C48.156,7.058 48.420,7.595 48.420,8.267 C48.420,9.094 48.043,9.483 47.448,9.483 ZM48.172,8.267 C48.172,7.839 48.090,7.573 47.958,7.405 C47.826,7.248 47.643,7.175 47.445,7.175 C47.178,7.175 47.024,7.298 46.933,7.405 C46.800,7.573 46.719,7.839 46.719,8.267 C46.719,8.633 46.791,8.934 46.933,9.129 C47.049,9.272 47.244,9.362 47.445,9.362 C47.646,9.362 47.835,9.272 47.958,9.129 C48.099,8.934 48.172,8.633 48.172,8.267 ZM45.291,8.349 L44.983,8.349 L44.983,9.098 C44.983,9.328 44.999,9.342 45.238,9.342 L45.238,9.436 L44.502,9.436 L44.502,9.342 C44.735,9.342 44.753,9.322 44.753,9.094 L44.753,7.444 C44.753,7.213 44.735,7.201 44.502,7.201 L44.502,7.106 L45.291,7.106 C45.571,7.106 45.741,7.140 45.895,7.253 C46.036,7.355 46.109,7.500 46.109,7.706 C46.109,8.049 45.851,8.267 45.524,8.318 L45.992,9.117 C46.115,9.315 46.159,9.342 46.313,9.342 L46.313,9.436 L45.917,9.436 L45.291,8.349 ZM45.867,7.696 C45.867,7.561 45.820,7.431 45.716,7.346 C45.625,7.270 45.493,7.225 45.282,7.225 L45.065,7.225 C44.989,7.225 44.983,7.251 44.983,7.422 L44.983,8.226 L45.219,8.226 C45.637,8.226 45.867,8.068 45.867,7.696 ZM32.275,7.552 C22.959,5.907 25.132,0.918 34.870,0.756 C34.870,8.583 34.870,16.412 34.870,24.240 C-3.832,23.853 -16.633,10.440 32.275,7.552 ZM33.579,2.107 C32.685,2.166 29.318,2.744 29.234,4.295 C29.203,5.668 32.308,6.200 33.579,6.316 C33.579,4.864 33.579,3.559 33.579,2.107 ZM33.579,22.925 L33.498,8.777 L32.351,8.844 C27.372,9.138 11.579,10.013 11.549,15.857 C11.501,21.930 28.458,22.835 33.579,22.925 Z"/>
</svg>