<svg 
 xmlns="http://www.w3.org/2000/svg"
 xmlns:xlink="http://www.w3.org/1999/xlink"
 width="171px" height="57px">
<path fill-rule="evenodd"  fill="rgb(255, 255, 255)"
 d="M106.780,19.463 C106.780,20.038 106.551,21.065 104.978,21.065 L102.818,21.065 L102.818,20.835 C103.383,20.835 103.429,20.789 103.429,20.230 L103.429,16.238 C103.429,15.670 103.383,15.641 102.818,15.641 L102.818,15.410 L104.643,15.410 C105.268,15.410 105.688,15.464 106.047,15.733 C106.329,15.946 106.512,16.276 106.512,16.682 C106.512,16.996 106.413,17.332 106.161,17.593 C105.948,17.816 105.642,17.977 105.192,18.060 L105.192,18.068 C105.940,18.092 106.780,18.506 106.780,19.463 ZM105.933,16.750 C105.933,16.475 105.856,16.200 105.665,16.000 C105.490,15.824 105.200,15.701 104.749,15.701 L104.208,15.701 C104.009,15.701 103.986,15.762 103.986,15.954 L103.986,17.946 L104.559,17.946 C105.627,17.946 105.933,17.341 105.933,16.750 ZM104.719,18.245 L103.986,18.245 L103.986,20.383 C103.986,20.711 104.040,20.766 104.269,20.766 L104.948,20.766 C105.665,20.766 106.192,20.459 106.192,19.448 C106.192,18.988 105.970,18.245 104.719,18.245 ZM86.946,56.994 C86.946,37.996 86.946,18.998 86.946,0.000 C99.939,0.216 107.381,3.971 107.694,7.972 L100.516,7.972 C99.513,4.669 92.271,3.393 90.225,3.256 C90.225,20.125 90.177,36.935 90.081,53.804 C102.509,53.585 143.663,51.390 143.547,36.649 C143.538,34.882 142.934,33.300 141.861,31.888 L102.710,31.888 L102.710,28.602 L162.932,28.602 L163.650,28.995 C186.001,40.928 151.180,56.353 86.946,56.994 ZM161.242,18.506 L160.586,18.506 L160.586,20.245 C160.586,20.797 160.624,20.835 161.303,20.835 L161.303,21.065 L159.418,21.065 L159.418,20.835 C159.983,20.835 160.029,20.789 160.029,20.245 L160.029,16.230 C160.029,15.670 159.983,15.641 159.418,15.641 L159.418,15.410 L161.311,15.410 C162.158,15.410 162.593,15.540 162.898,15.785 C163.204,16.046 163.394,16.429 163.394,16.927 C163.394,17.425 163.234,17.816 162.906,18.084 C162.570,18.352 162.112,18.506 161.242,18.506 ZM161.219,15.701 L160.777,15.701 C160.609,15.701 160.586,15.770 160.586,16.161 L160.586,18.214 L161.242,18.214 C162.051,18.214 162.807,18.007 162.807,16.919 C162.807,15.733 161.769,15.701 161.219,15.701 ZM158.357,16.230 L158.357,19.233 C158.357,19.923 158.197,20.414 157.869,20.735 C157.564,21.034 157.144,21.180 156.587,21.180 C154.808,21.180 154.724,19.947 154.724,19.141 L154.724,16.230 C154.724,15.670 154.686,15.641 154.167,15.641 L154.167,15.410 L155.861,15.410 L155.861,15.641 C155.327,15.641 155.289,15.663 155.289,16.230 L155.289,19.111 C155.289,19.976 155.487,20.835 156.678,20.835 C157.976,20.835 158.029,19.739 158.029,19.134 L158.029,16.230 C158.029,15.670 157.983,15.641 157.472,15.641 L157.472,15.410 L158.891,15.410 L158.891,15.641 C158.395,15.641 158.357,15.670 158.357,16.230 ZM151.175,21.180 C149.664,21.180 148.817,20.191 148.817,18.229 C148.817,16.145 149.809,15.295 151.175,15.295 C152.893,15.295 153.534,16.597 153.534,18.229 C153.534,20.236 152.618,21.180 151.175,21.180 ZM152.931,18.229 C152.931,17.188 152.733,16.544 152.411,16.137 C152.091,15.755 151.649,15.578 151.168,15.578 C150.519,15.578 150.145,15.877 149.923,16.137 C149.603,16.544 149.405,17.188 149.405,18.229 C149.405,19.119 149.580,19.847 149.923,20.322 C150.206,20.666 150.679,20.889 151.168,20.889 C151.656,20.889 152.114,20.666 152.411,20.322 C152.755,19.847 152.931,19.119 152.931,18.229 ZM145.940,18.429 L145.192,18.429 L145.192,20.245 C145.192,20.804 145.230,20.835 145.810,20.835 L145.810,21.065 L144.024,21.065 L144.024,20.835 C144.589,20.835 144.635,20.789 144.635,20.236 L144.635,16.230 C144.635,15.670 144.589,15.641 144.024,15.641 L144.024,15.410 L145.940,15.410 C146.619,15.410 147.031,15.494 147.405,15.770 C147.749,16.015 147.924,16.368 147.924,16.866 C147.924,17.701 147.298,18.229 146.504,18.352 L147.642,20.291 C147.939,20.774 148.046,20.835 148.420,20.835 L148.420,21.065 L147.459,21.065 L145.940,18.429 ZM147.337,16.843 C147.337,16.514 147.222,16.200 146.970,15.993 C146.749,15.808 146.428,15.701 145.917,15.701 L145.390,15.701 C145.207,15.701 145.192,15.762 145.192,16.176 L145.192,18.130 L145.764,18.130 C146.779,18.130 147.337,17.747 147.337,16.843 ZM143.032,19.517 L143.032,20.529 C142.643,20.904 142.055,21.180 141.445,21.180 C140.033,21.180 139.201,20.054 139.201,18.222 C139.201,16.728 139.826,15.295 141.612,15.295 C142.124,15.295 142.505,15.433 142.833,15.571 C142.872,16.000 142.933,16.368 143.001,16.782 L142.734,16.835 C142.589,16.022 142.475,15.578 141.551,15.578 C140.429,15.578 139.788,16.636 139.788,18.176 C139.788,19.923 140.498,20.873 141.490,20.873 C142.017,20.873 142.353,20.613 142.513,20.483 L142.513,19.555 C142.513,19.165 142.467,19.126 141.879,19.126 L141.879,18.896 L143.536,18.896 L143.536,19.126 C143.063,19.126 143.032,19.157 143.032,19.517 ZM133.667,21.065 L131.821,21.065 L131.821,20.835 C132.385,20.835 132.431,20.789 132.431,20.245 L132.431,16.230 C132.431,15.670 132.385,15.641 131.821,15.641 L131.821,15.410 L133.835,15.410 C134.675,15.410 135.217,15.578 135.659,16.046 C136.155,16.575 136.354,17.318 136.354,18.176 C136.354,20.107 135.461,21.065 133.667,21.065 ZM135.255,16.292 C134.911,15.847 134.423,15.694 133.805,15.694 L133.233,15.694 C133.026,15.694 132.988,15.747 132.988,16.007 L132.988,20.368 C132.988,20.720 133.026,20.774 133.255,20.774 L133.637,20.774 C134.881,20.774 135.766,20.084 135.766,18.267 C135.766,17.403 135.629,16.782 135.255,16.292 ZM129.042,18.429 L128.295,18.429 L128.295,20.245 C128.295,20.804 128.332,20.835 128.913,20.835 L128.913,21.065 L127.127,21.065 L127.127,20.835 C127.692,20.835 127.737,20.789 127.737,20.236 L127.737,16.230 C127.737,15.670 127.692,15.641 127.127,15.641 L127.127,15.410 L129.042,15.410 C129.722,15.410 130.134,15.494 130.508,15.770 C130.851,16.015 131.026,16.368 131.026,16.866 C131.026,17.701 130.401,18.229 129.607,18.352 L130.744,20.291 C131.042,20.774 131.149,20.835 131.523,20.835 L131.523,21.065 L130.561,21.065 L129.042,18.429 ZM130.439,16.843 C130.439,16.514 130.325,16.200 130.073,15.993 C129.851,15.808 129.531,15.701 129.019,15.701 L128.493,15.701 C128.310,15.701 128.295,15.762 128.295,16.176 L128.295,18.130 L128.867,18.130 C129.882,18.130 130.439,17.747 130.439,16.843 ZM125.272,20.835 C125.593,20.835 125.700,20.789 125.700,20.635 C125.700,20.559 125.677,20.452 125.631,20.322 L125.264,19.241 L123.250,19.241 L122.960,20.260 C122.914,20.429 122.883,20.544 122.883,20.628 C122.883,20.797 122.998,20.835 123.303,20.835 L123.303,21.065 L122.067,21.065 L122.067,20.835 C122.364,20.835 122.448,20.766 122.563,20.406 L124.158,15.295 L124.433,15.295 L126.204,20.298 C126.356,20.759 126.448,20.835 126.730,20.835 L126.730,21.065 L125.272,21.065 L125.272,20.835 ZM124.211,16.176 L124.188,16.176 L123.349,18.942 L125.165,18.942 L124.211,16.176 ZM119.884,20.857 C120.701,20.857 121.128,20.221 121.334,19.570 L121.616,19.647 C121.242,20.789 120.525,21.180 119.815,21.180 C118.777,21.180 117.610,20.551 117.610,18.176 C117.610,16.468 118.365,15.295 119.953,15.295 C120.403,15.295 120.701,15.357 121.235,15.556 C121.281,15.984 121.349,16.429 121.426,16.804 L121.151,16.866 C120.975,15.977 120.900,15.578 119.960,15.578 C118.723,15.578 118.197,16.705 118.197,18.161 C118.197,20.375 119.250,20.857 119.884,20.857 ZM114.526,21.180 C113.015,21.180 112.168,20.191 112.168,18.229 C112.168,16.145 113.160,15.295 114.526,15.295 C116.243,15.295 116.884,16.597 116.884,18.229 C116.884,20.236 115.968,21.180 114.526,21.180 ZM116.282,18.229 C116.282,17.188 116.083,16.544 115.763,16.137 C115.442,15.755 114.999,15.578 114.519,15.578 C113.870,15.578 113.496,15.877 113.275,16.137 C112.954,16.544 112.756,17.188 112.756,18.229 C112.756,19.119 112.931,19.847 113.275,20.322 C113.557,20.666 114.030,20.889 114.519,20.889 C115.007,20.889 115.465,20.666 115.763,20.322 C116.106,19.847 116.282,19.119 116.282,18.229 ZM109.290,18.429 L108.542,18.429 L108.542,20.245 C108.542,20.804 108.581,20.835 109.161,20.835 L109.161,21.065 L107.375,21.065 L107.375,20.835 C107.940,20.835 107.985,20.789 107.985,20.236 L107.985,16.230 C107.985,15.670 107.940,15.641 107.375,15.641 L107.375,15.410 L109.290,15.410 C109.970,15.410 110.382,15.494 110.756,15.770 C111.099,16.015 111.275,16.368 111.275,16.866 C111.275,17.701 110.649,18.229 109.855,18.352 L110.992,20.291 C111.290,20.774 111.397,20.835 111.771,20.835 L111.771,21.065 L110.809,21.065 L109.290,18.429 ZM110.687,16.843 C110.687,16.514 110.573,16.200 110.321,15.993 C110.100,15.808 109.779,15.701 109.268,15.701 L108.741,15.701 C108.558,15.701 108.542,15.762 108.542,16.176 L108.542,18.130 L109.115,18.130 C110.130,18.130 110.687,17.747 110.687,16.843 ZM77.699,16.491 C55.089,12.498 60.364,0.392 83.999,0.000 C83.999,18.998 83.999,37.996 83.999,56.994 C-9.932,56.056 -41.001,23.502 77.699,16.491 ZM80.864,3.277 C78.696,3.423 70.522,4.824 70.319,8.591 C70.245,11.919 77.779,13.212 80.864,13.494 C80.864,9.969 80.864,6.803 80.864,3.277 ZM80.864,53.804 L80.667,19.466 L77.883,19.631 C65.800,20.345 27.471,22.465 27.398,36.649 C27.282,51.390 68.436,53.585 80.864,53.804 Z"/>
</svg>